<?xml version="1.0" standalone="no"?><!DOCTYPE svg PUBLIC "-//W3C//DTD SVG 1.1//EN" "http://www.w3.org/Graphics/SVG/1.1/DTD/svg11.dtd"><svg width="200" height="200" viewBox="0 0 200 200" version="1.1" xmlns="http://www.w3.org/2000/svg" xmlns:xlink="http://www.w3.org/1999/xlink"><defs><style type="text/css"><![CDATA[
@font-face { font-family: ifont; src: url(http://at.alicdn.com/t/font_1442373896_4754455.eot?#iefix) format(embedded-opentype), url(http://at.alicdn.com/t/font_1442373896_4754455.woff) format(woff), url(http://at.alicdn.com/t/font_1442373896_4754455.ttf) format(truetype), url(http://at.alicdn.com/t/font_1442373896_4754455.svg#ifont) format(svg); }

]]></style></defs><g class="transform-group"><g transform="scale(0.1953125, 0.1953125)"><path d="M512 639.1c17.7 0 32-14.3 32-32l0-256c0-17.7-14.3-32-32-32s-32 14.3-32 32l0 256C480 624.8 494.3 639.1 512 639.1zM512 703.1c-26.5 0-48 21.5-48 48s21.5 48 48 48c26.5 0 48-21.5 48-48S538.5 703.1 512 703.1zM939.8 767.7 602.1 159.5c-22.1-39.8-55-62.6-90.1-62.6s-68 22.8-90.1 62.6l0 0L84.2 767.7c-21.9 39.5-24.1 79.9-5.9 110.8 18.2 30.9 54.5 48.6 99.7 48.6l668 0c45.2 0 81.5-17.7 99.7-48.6C963.9 847.6 961.8 807.2 939.8 767.7zM890.6 846c-6.4 10.9-22.6 17.1-44.6 17.1L178 863.1c-21.9 0-38.2-6.2-44.6-17.1-6.4-10.9-4-28.1 6.7-47.3l337.7-608.2c0 0 0 0 0 0 10.3-18.6 23.1-29.7 34.2-29.7s23.8 11.1 34.2 29.7l337.7 608.2C894.5 817.9 897 835.2 890.6 846z" fill="#eb4f38"></path></g></g></svg>