<?xml version="1.0" standalone="no"?><!DOCTYPE svg PUBLIC "-//W3C//DTD SVG 1.1//EN" "http://www.w3.org/Graphics/SVG/1.1/DTD/svg11.dtd"><svg width="200" height="200" viewBox="0 0 200 200" version="1.1" xmlns="http://www.w3.org/2000/svg" xmlns:xlink="http://www.w3.org/1999/xlink"><defs><style type="text/css"><![CDATA[
@font-face { font-family: ifont; src: url("http://at.alicdn.com/t/font_1442373896_4754455.eot?#iefix") format("embedded-opentype"), url("http://at.alicdn.com/t/font_1442373896_4754455.woff") format("woff"), url("http://at.alicdn.com/t/font_1442373896_4754455.ttf") format("truetype"), url("http://at.alicdn.com/t/font_1442373896_4754455.svg#ifont") format("svg"); }

]]></style></defs><g class="transform-group"><g transform="scale(0.1953125, 0.1953125)"><path d="M507.217512 307.740507c-108.450196 0-197.023668 88.399115-197.023668 197.198025 0 107.927124 88.573472 196.84931 197.023668 196.84931 108.275839 0 197.023668-88.747829 197.023668-196.84931C704.24118 395.965265 615.493351 307.740507 507.217512 307.740507L507.217512 307.740507zM507.217512 661.68568 507.217512 661.68568c-86.481185 0-156.747148-70.614677-156.747148-156.747148 0-86.655542 70.265963-157.27022 156.747148-157.27022 86.655542 0 157.27022 70.614677 157.27022 157.27022C664.487732 591.24536 593.873054 661.68568 507.217512 661.68568L507.217512 661.68568zM937.531151 489.769453 937.531151 489.769453c-80.378682-162.675294-248.633407-267.463988-430.313639-267.463988-181.680232 0-349.586242 104.614337-430.139281 267.463988-4.184573 9.066576-4.707645 19.876724 0 29.640729 80.553039 162.675294 248.45905 267.463988 430.139281 267.463988 181.680232 0 350.109314-104.614337 430.313639-267.463988C942.064439 510.692321 942.064439 499.707815 937.531151 489.769453L937.531151 489.769453zM507.217512 719.920994 507.217512 719.920994c-150.644645 0-290.827856-82.819683-362.837391-214.982462C216.389656 372.601396 356.572867 289.432998 507.217512 289.432998s290.827856 83.168398 363.011749 215.505534C798.045368 637.101311 657.862157 719.920994 507.217512 719.920994L507.217512 719.920994zM582.539834 473.554231 582.539834 473.554231c-12.728078-30.1638-42.891878-50.214882-75.322322-50.214882-11.158863 0-19.876724 9.240933-19.876724 20.051081 0 10.984505 8.717861 19.876724 19.876724 19.876724 16.563937 0 32.256087 9.938362 38.35859 25.630513l0.174357 0.523072c1.743572 4.707645 3.13843 9.938362 3.13843 15.692151 0 16.040865-10.461434 31.733015-25.979227 37.835518l-0.523072 0.523072c-9.764005 3.835859-21.271582 3.487145-30.686872-0.174357l0-0.174357c-15.692151-6.451217-25.80487-21.794653-25.80487-37.835518 0-11.33322-8.717861-20.399796-20.051081-20.399796-10.810148 0-19.702367 9.066576-19.702367 20.399796 0 21.097225 8.717861 42.194449 23.712583 57.363528 7.323004 7.323004 16.563937 13.425507 26.327941 17.435723 19.702367 8.020432 41.671377 8.369147 61.548101 0.523072l0.871786-0.523072c9.938362-4.010216 19.004938-10.112719 26.502299-17.435723 14.994722-15.169079 23.712583-36.266303 23.712583-57.363528 0-10.461434-2.092287-20.922867-5.753789-30.338158L582.539834 473.554231 582.539834 473.554231z" fill="#ecf0f1"></path></g></g></svg>