<?xml version="1.0" standalone="no"?><!DOCTYPE svg PUBLIC "-//W3C//DTD SVG 1.1//EN" "http://www.w3.org/Graphics/SVG/1.1/DTD/svg11.dtd"><svg width="200" height="200" viewBox="0 0 200 200" version="1.1" xmlns="http://www.w3.org/2000/svg" xmlns:xlink="http://www.w3.org/1999/xlink"><defs><style type="text/css"><![CDATA[
@font-face { font-family: ifont; src: url("http://at.alicdn.com/t/font_1442373896_4754455.eot?#iefix") format("embedded-opentype"), url("http://at.alicdn.com/t/font_1442373896_4754455.woff") format("woff"), url("http://at.alicdn.com/t/font_1442373896_4754455.ttf") format("truetype"), url("http://at.alicdn.com/t/font_1442373896_4754455.svg#ifont") format("svg"); }

]]></style></defs><g class="transform-group"><g transform="scale(0.1953125, 0.1953125)"><path d="M512.01024 665.6C311.84896 665.6 225.28 512 225.28 512 225.28 512 312.3712 358.4 512.01024 358.4 700.5696 358.4 798.72 512 798.72 512 798.72 512 701.184 665.6 512.01024 665.6ZM540.16 424.96C524.60544 424.96 512 437.56544 512 453.12 512 468.67456 524.60544 481.28 540.16 481.28 555.71456 481.28 568.32 468.67456 568.32 453.12 568.32 437.56544 555.71456 424.96 540.16 424.96ZM608.98304 424.192C618.86464 440.94464 624.64 460.42112 624.64 481.28 624.64 543.488 574.208 593.92 512 593.92 449.792 593.92 399.36 543.488 399.36 481.28 399.36 460.35968 405.16608 440.84224 415.09888 424.05888 326.11328 452.27008 286.72 512 286.72 512 286.72 512 352.69632 614.4 512.01024 614.4 670.67904 614.4 737.28 512 737.28 512 737.28 512 697.51808 452.4544 608.98304 424.192Z" fill="#ecf0f1"></path></g></g></svg>