<?xml version="1.0" standalone="no"?><!DOCTYPE svg PUBLIC "-//W3C//DTD SVG 1.1//EN" "http://www.w3.org/Graphics/SVG/1.1/DTD/svg11.dtd"><svg width="200" height="200" viewBox="0 0 200 200" version="1.1" xmlns="http://www.w3.org/2000/svg" xmlns:xlink="http://www.w3.org/1999/xlink"><defs><style type="text/css"><![CDATA[
@font-face { font-family: ifont; src: url("//at.alicdn.com/t/font_1442373896_4754455.eot?#iefix") format("embedded-opentype"), url("//at.alicdn.com/t/font_1442373896_4754455.woff") format("woff"), url("//at.alicdn.com/t/font_1442373896_4754455.ttf") format("truetype"), url("//at.alicdn.com/t/font_1442373896_4754455.svg#ifont") format("svg"); }

]]></style></defs><g class="transform-group"><g transform="scale(0.1953125, 0.1953125)"><path d="M947.2 921.6 844.8 921.6 844.8 1024l-102.4 0 0-102.4-102.4 0 0-102.4 102.4 0L742.4 716.8l102.4 0L844.8 819.2l102.456889 0L947.256889 921.6zM732.216889 680.846222C691.768889 640.113778 634.993778 614.4 571.733333 614.4L401.123556 614.4c-122.595556 0-221.866667 95.232-221.866667 212.707556l0 35.384889c0 20.707556 3.982222 40.220444 9.728 59.107556L81.92 921.6c-2.787556-16.725333-5.176889-33.678222-5.176889-51.2L76.743111 819.2c0-132.323556 84.138667-244.110222 201.443556-287.345778C217.713778 475.761778 179.2 396.231111 179.2 307.2 179.2 137.557333 316.757333 0 486.4 0c169.699556 0 307.2 137.557333 307.2 307.2 0 89.372444-38.855111 169.073778-99.669333 225.223111 50.574222 18.602667 95.630222 48.469333 129.649778 88.917333C787.114667 631.296 755.484444 652.344889 732.216889 680.846222zM486.4 102.4c-113.095111 0-204.8 91.704889-204.8 204.8 0 113.095111 91.648 204.8 204.8 204.8s204.856889-91.704889 204.856889-204.8C691.2 194.104889 599.495111 102.4 486.4 102.4z" fill="#00bb9c"></path></g></g></svg>