<?xml version="1.0" standalone="no"?><!DOCTYPE svg PUBLIC "-//W3C//DTD SVG 1.1//EN" "http://www.w3.org/Graphics/SVG/1.1/DTD/svg11.dtd"><svg width="200" height="200" viewBox="0 0 200 200" version="1.1" xmlns="http://www.w3.org/2000/svg" xmlns:xlink="http://www.w3.org/1999/xlink"><defs><style type="text/css"><![CDATA[
@font-face { font-family: ifont; src: url("http://at.alicdn.com/t/font_1442373896_4754455.eot?#iefix") format("embedded-opentype"), url("http://at.alicdn.com/t/font_1442373896_4754455.woff") format("woff"), url("http://at.alicdn.com/t/font_1442373896_4754455.ttf") format("truetype"), url("http://at.alicdn.com/t/font_1442373896_4754455.svg#ifont") format("svg"); }

]]></style></defs><g class="transform-group"><g transform="scale(0.1953125, 0.1953125)"><path d="M256 1024l512 0c26.464 0 48-21.536 48-48l0-928c0-26.464-21.536-48-48-48l-512 0c-26.464 0-48 21.536-48 48l0 928c0 26.464 21.536 48 48 48zM240 48c0-8.832 7.168-16 16-16l512 0c8.832 0 16 7.168 16 16l0 928c0 8.832-7.168 16-16 16l-512 0c-8.832 0-16-7.168-16-16l0-928zM288 864l448 0c8.832 0 16-7.168 16-16l0-672c0-8.832-7.168-16-16-16l-448 0c-8.832 0-16 7.168-16 16l0 672c0 8.832 7.168 16 16 16zM304 192l416 0 0 640-416 0 0-640zM496 928c0 17.664 14.336 32 32 32s32-14.336 32-32c0-17.664-14.336-32-32-32s-32 14.336-32 32zM448 128l128 0c8.832 0 16-7.168 16-16s-7.168-16-16-16l-128 0c-8.832 0-16 7.168-16 16s7.168 16 16 16z" fill="#ecf0f1"></path></g></g></svg>