<?xml version="1.0" standalone="no"?><!DOCTYPE svg PUBLIC "-//W3C//DTD SVG 1.1//EN" "http://www.w3.org/Graphics/SVG/1.1/DTD/svg11.dtd"><svg width="200" height="200" viewBox="0 0 200 200" version="1.1" xmlns="http://www.w3.org/2000/svg" xmlns:xlink="http://www.w3.org/1999/xlink"><defs><style type="text/css"><![CDATA[
@font-face { font-family: ifont; src: url("http://at.alicdn.com/t/font_1442373896_4754455.eot?#iefix") format("embedded-opentype"), url("http://at.alicdn.com/t/font_1442373896_4754455.woff") format("woff"), url("http://at.alicdn.com/t/font_1442373896_4754455.ttf") format("truetype"), url("http://at.alicdn.com/t/font_1442373896_4754455.svg#ifont") format("svg"); }

]]></style></defs><g class="transform-group"><g transform="scale(0.1953125, 0.1953125)"><path d="M284.240409 0.001023c-27.558632 0-49.996644 22.665186-49.996644 50.440759l0 921.25709c0 27.776596 22.438013 50.441782 49.996644 50.441782l455.518159 0c27.559655 0 49.997668-22.665186 49.997668-50.441782L789.756236 50.440759c0-27.774549-22.439036-50.440759-49.997668-50.440759L284.240409 0zM315.346839 87.776048 708.653161 87.776048c19.323072 0 34.882427 15.547076 34.882427 35.098344l0 673.28671c0 19.334328-15.559355 35.109601-34.882427 35.109601L315.346839 831.270703c-19.334328 0-34.882427-15.775273-34.882427-35.109601L280.464413 122.874392C280.464413 103.323124 296.012512 87.776048 315.346839 87.776048zM482.227448 35.109601l99.10199 0c9.33152 0 17.110686 7.780189 17.110686 17.110686l0 0.662078c0 9.55767-7.779166 17.33786-17.110686 17.33786l-99.10199 0c-9.330497 0-16.894768-7.780189-16.894768-17.33786l0-0.662078C465.332679 42.88979 472.896951 35.109601 482.227448 35.109601zM471.561538 937.261583c0-27.330435 21.992875-49.550483 49.107392-49.550483 27.101214 0 49.106369 22.220049 49.106369 49.550483 0 27.548399-22.005155 49.768447-49.106369 49.768447C493.554413 987.030031 471.561538 964.809982 471.561538 937.261583zM495.994995 46.882727l65.784197 0c1.107216 0 1.769295 0.672312 1.769295 1.778504l0 7.996107c0 1.117449-0.661055 1.779528-1.769295 1.779528l-65.784197 0c-1.10517 0-1.767248-0.662078-1.767248-1.779528l0-7.996107C494.227747 47.555038 494.889826 46.882727 495.994995 46.882727zM341.665225 255.272686c-12.889552 0-23.555462 10.66591-23.555462 23.782636l0 221.314304c0 13.106493 10.66591 23.770356 23.555462 23.770356l167.098572 0c13.107516 0 23.554439-10.664887 23.554439-23.770356L532.318236 279.055321c0-13.116726-10.446923-23.782636-23.554439-23.782636L341.665225 255.272686zM370.776211 342.820537c0-22.436989 18.216879-40.882065 40.436927-40.882065 22.448246 0 40.665124 18.445076 40.665124 40.882065 0 14.452139-7.551992 27.114517-18.660993 34.219325 24.216517 13.33469 41.771317 50.668956 41.771317 94.436741l-0.216941 5.999638L353.448584 477.476242l0-5.999638c0-41.988258 15.992213-77.988134 38.441482-92.657214C379.216432 371.930499 370.776211 358.379892 370.776211 342.820537zM565.547002 280.641444 706.616783 280.641444c5.239323 0 9.567903 5.339606 9.567903 11.783359 0 6.444776-4.327558 11.555162-9.567903 11.555162L565.547002 303.979966c-5.239323 0-9.394965-5.110386-9.394965-11.555162C556.152037 285.981051 560.307679 280.641444 565.547002 280.641444zM565.547002 317.49271 706.616783 317.49271c5.239323 0 9.567903 5.110386 9.567903 11.555162 0 6.43352-4.327558 11.771079-9.567903 11.771079L565.547002 340.818952c-5.239323 0-9.394965-5.33756-9.394965-11.771079C556.152037 322.603096 560.307679 317.49271 565.547002 317.49271zM565.547002 354.33272 706.616783 354.33272c5.239323 0 9.567903 5.110386 9.567903 11.555162s-4.327558 11.783359-9.567903 11.783359L565.547002 377.671241c-5.239323 0-9.394965-5.33756-9.394965-11.783359S560.307679 354.33272 565.547002 354.33272zM565.547002 391.17887 706.616783 391.17887c5.239323 0 9.567903 5.110386 9.567903 11.555162 0 6.443753-4.327558 11.782336-9.567903 11.782336L565.547002 414.516367c-5.239323 0-9.394965-5.33756-9.394965-11.782336C556.152037 396.289256 560.307679 391.17887 565.547002 391.17887zM565.547002 428.023996 706.616783 428.023996c5.239323 0 9.567903 5.33756 9.567903 11.783359 0 6.443753-4.327558 11.555162-9.567903 11.555162L565.547002 451.362517c-5.239323 0-9.394965-5.111409-9.394965-11.555162C556.152037 433.361556 560.307679 428.023996 565.547002 428.023996zM565.547002 464.875262 706.616783 464.875262c5.239323 0 9.567903 5.338583 9.567903 11.771079 0 6.444776-4.327558 11.555162-9.567903 11.555162L565.547002 488.201503c-5.239323 0-9.394965-5.109363-9.394965-11.555162C556.152037 470.213845 560.307679 464.875262 565.547002 464.875262zM319.645745 619.28485l385.439151 0 0 146.212913-385.439151 0 0-146.212913Z" fill="#ecf0f1"></path></g></g></svg>