<?xml version="1.0" standalone="no"?><!DOCTYPE svg PUBLIC "-//W3C//DTD SVG 1.1//EN" "http://www.w3.org/Graphics/SVG/1.1/DTD/svg11.dtd"><svg width="200" height="200" viewBox="0 0 200 200" version="1.1" xmlns="http://www.w3.org/2000/svg" xmlns:xlink="http://www.w3.org/1999/xlink"><defs><style type="text/css"><![CDATA[
@font-face { font-family: ifont; src: url("//at.alicdn.com/t/font_1442373896_4754455.eot?#iefix") format("embedded-opentype"), url("//at.alicdn.com/t/font_1442373896_4754455.woff") format("woff"), url("//at.alicdn.com/t/font_1442373896_4754455.ttf") format("truetype"), url("//at.alicdn.com/t/font_1442373896_4754455.svg#ifont") format("svg"); }

]]></style></defs><g class="transform-group"><g transform="scale(0.1953125, 0.1953125)"><path d="M524.288 176.128m-49.152 0a6 6 0 1 0 98.304 0 6 6 0 1 0-98.304 0ZM524.288 667.648m-24.576 0a3 3 0 1 0 49.152 0 3 3 0 1 0-49.152 0ZM362.303488 231.438746a5.5 5.5 0 1 0 78.036992-45.056 5.5 5.5 0 1 0-78.036992 45.056ZM629.494579 645.08969a2.5 2.5 0 1 0 35.47136-20.48 2.5 2.5 0 1 0-35.47136 20.48ZM290.88727 334.621901a5 5 0 1 0 40.96-70.94272 5 5 0 1 0-40.96 70.94272ZM728.997069 558.839398a2 2 0 1 0 16.384-28.377088 2 2 0 1 0-16.384 28.377088ZM278.528 421.888m-36.864 0a4.5 4.5 0 1 0 73.728 0 4.5 4.5 0 1 0-73.728 0ZM770.048 421.888m-12.288 0a1.5 1.5 0 1 0 24.576 0 1.5 1.5 0 1 0-24.576 0ZM282.935296 561.216717a4 4 0 1 0 56.754176-32.768 4 4 0 1 0-56.754176 32.768ZM730.148045 303.014707a1 1 0 1 0 14.188544-8.192 1 1 0 1 0-14.188544 8.192ZM387.192422 659.643597a3.5 3.5 0 1 0 28.672-49.659904 3.5 3.5 0 1 0-28.672 49.659904Z" fill="#ea8010"></path></g></g></svg>